<?xml version="1.0" encoding="UTF-8" standalone="no"?>
<!-- Created with Inkscape (http://www.inkscape.org/) -->

<svg
   width="538.4577"
   height="573.65015"
   viewBox="0 0 142.46693 151.77827"
   version="1.1"
   id="svg156717"
   inkscape:version="1.2.2 (b0a8486541, 2022-12-01)"
   sodipodi:docname="logo--black-cropped.svg"
   xml:space="preserve"
   xmlns:inkscape="http://www.inkscape.org/namespaces/inkscape"
   xmlns:sodipodi="http://sodipodi.sourceforge.net/DTD/sodipodi-0.dtd"
   xmlns="http://www.w3.org/2000/svg"
   xmlns:svg="http://www.w3.org/2000/svg"><sodipodi:namedview
     id="namedview156719"
     pagecolor="#ffffff"
     bordercolor="#000000"
     borderopacity="0.25"
     inkscape:showpageshadow="2"
     inkscape:pageopacity="0.0"
     inkscape:pagecheckerboard="0"
     inkscape:deskcolor="#d1d1d1"
     inkscape:document-units="mm"
     showgrid="false"
     inkscape:zoom="0.19920333"
     inkscape:cx="6734.3252"
     inkscape:cy="3212.7977"
     inkscape:window-width="1920"
     inkscape:window-height="1027"
     inkscape:window-x="0"
     inkscape:window-y="0"
     inkscape:window-maximized="1"
     inkscape:current-layer="layer1" /><defs
     id="defs156714" /><g
     inkscape:label="Calque 1"
     inkscape:groupmode="layer"
     id="layer1"
     transform="translate(-829.92303,-1131.6461)"><path
       style="fill:#e5e5e5;fill-opacity:1;stroke-width:0.357476"
       d="m 839.67506,1278.721 -9.29443,-4.7033 -0.26846,-7.1496 c -0.34683,-9.235 -0.17618,-121.5742 0.18523,-121.9355 0.30765,-0.3076 -0.24049,-0.5904 23.49792,12.1214 42.50913,22.7631 70.00249,37.6291 70.55847,38.1517 0.41884,0.3936 -2.33536,2.1201 -10.8463,6.7993 l -7.07053,3.8874 -22.29923,-12.1793 c -27.1056,-14.8044 -34.10669,-18.3806 -34.7163,-17.7333 -0.0459,0.049 -0.16699,24.2442 -0.26805,53.7669 l -0.18402,53.6777 z m 13.61347,3.4662 c -0.1243,-0.3237 -0.40033,-6.718 -0.61353,-14.2097 -0.40128,-14.102 -0.28522,-86.8684 0.13916,-87.293 0.127,-0.127 4.03328,1.8265 8.68103,4.3404 6.29055,3.4028 8.53363,4.7899 8.77602,5.4272 0.17902,0.471 0.3325,8.4467 0.34101,17.7238 0.0203,22.2848 0.50545,43.091 1.01616,43.6017 0.28305,0.2831 0.7608,0.2147 1.73048,-0.2476 2.4067,-1.1478 60.99436,-33.3428 90.83808,-49.9174 5.52989,-3.0712 7.33981,-3.9239 7.56274,-3.5633 0.54597,0.8835 0.83133,10.1304 0.46761,15.1536 -0.30778,4.2503 -0.45572,5.0185 -1.03291,5.3622 -4.08408,2.4324 -117.16573,64.2106 -117.5339,64.2106 -0.0797,0 -0.24779,-0.2648 -0.37195,-0.5885 z m 21.32414,-45.9397 0.0946,-10.1272 2.85985,-1.5407 c 1.57295,-0.8472 12.65041,-6.6933 24.6169,-12.991 23.25971,-12.2413 27.08398,-14.3687 28.43777,-15.8195 1.68373,-1.8044 4.45631,-0.195 -45.01148,-26.1285 -41.08508,-21.539 -49.9758,-26.2219 -51.79613,-27.2817 l -1.57064,-0.9145 0.97981,-0.7815 c 1.33947,-1.0679 15.77237,-8.8122 16.78367,-9.0056 1.12005,-0.2141 6.24217,2.3911 59.64178,30.3337 56.11583,29.3638 59.9601,31.4011 59.96577,31.7782 0,0.3588 -72.39244,40.464 -91.24882,50.5476 l -3.84845,2.058 z"
       id="path303"
       inkscape:export-filename="mask-crop.svg"
       inkscape:export-xdpi="96"
       inkscape:export-ydpi="96" /></g><style
     id="style332">
    .st0,.st3{fill-rule:evenodd;clip-rule:evenodd;fill:#404f54}.st3{fill:#37beff}
  </style></svg>
