<?xml version="1.0" encoding="UTF-8" standalone="no"?>
<!-- Created with Inkscape (http://www.inkscape.org/) -->

<svg
   width="398.53534"
   height="424.58261"
   viewBox="0 0 105.4458 112.33749"
   version="1.1"
   id="svg156717"
   inkscape:version="1.2.2 (b0a8486541, 2022-12-01)"
   sodipodi:docname="logo--black-cropped.svg"
   xml:space="preserve"
   xmlns:inkscape="http://www.inkscape.org/namespaces/inkscape"
   xmlns:sodipodi="http://sodipodi.sourceforge.net/DTD/sodipodi-0.dtd"
   xmlns="http://www.w3.org/2000/svg"
   xmlns:svg="http://www.w3.org/2000/svg"><sodipodi:namedview
     id="namedview156719"
     pagecolor="#ffffff"
     bordercolor="#000000"
     borderopacity="0.25"
     inkscape:showpageshadow="2"
     inkscape:pageopacity="0.0"
     inkscape:pagecheckerboard="0"
     inkscape:deskcolor="#d1d1d1"
     inkscape:document-units="mm"
     showgrid="false"
     inkscape:zoom="0.19920333"
     inkscape:cx="6734.3252"
     inkscape:cy="3212.7977"
     inkscape:window-width="1920"
     inkscape:window-height="1027"
     inkscape:window-x="0"
     inkscape:window-y="0"
     inkscape:window-maximized="1"
     inkscape:current-layer="layer1" /><defs
     id="defs156714" /><g
     inkscape:label="Calque 1"
     inkscape:groupmode="layer"
     id="layer1"
     transform="translate(-990.51922,-1083.3091)"><path
       style="fill:#000000;stroke-width:0.264583"
       d="m 997.7371,1192.1654 -6.8792,-3.4811 -0.1987,-5.2917 c -0.2567,-6.8352 -0.1304,-89.9822 0.1371,-90.2496 0.2277,-0.2277 -0.178,-0.437 17.3918,8.9715 31.4628,16.848 51.8118,27.8509 52.2233,28.2377 0.31,0.2913 -1.7285,1.5692 -8.0278,5.0325 l -5.2332,2.8772 -16.5046,-9.0144 c -20.062,-10.9574 -25.2438,-13.6043 -25.695,-13.1252 -0.034,0.036 -0.1236,17.9442 -0.1984,39.7952 l -0.1362,39.7291 z m 10.0759,2.5655 c -0.092,-0.2396 -0.2963,-4.9723 -0.4541,-10.5172 -0.297,-10.4375 -0.2111,-64.295 0.103,-64.6092 0.094,-0.094 2.9852,1.3518 6.4252,3.2125 4.6559,2.5185 6.3161,3.5452 6.4955,4.0169 0.1325,0.3486 0.2461,6.2517 0.2524,13.1181 0.015,16.4939 0.3741,31.8935 0.7521,32.2715 0.2095,0.2095 0.5631,0.1589 1.2808,-0.1833 1.7813,-0.8495 45.1445,-24.6784 67.2331,-36.946 4.0929,-2.2731 5.4325,-2.9042 5.5975,-2.6373 0.4041,0.6539 0.6153,7.4979 0.3461,11.2158 -0.2278,3.1458 -0.3373,3.7144 -0.7645,3.9688 -3.0228,1.8003 -86.7193,47.525 -86.9918,47.525 -0.059,0 -0.1834,-0.196 -0.2753,-0.4356 z m 15.7829,-34.0019 0.07,-7.4956 2.1167,-1.1403 c 1.1642,-0.6271 9.3631,-4.954 18.22,-9.6152 17.2155,-9.0603 20.046,-10.6349 21.048,-11.7087 1.2462,-1.3355 3.2983,-0.1443 -33.3149,-19.3388 -30.4088,-15.9419 -36.9892,-19.4079 -38.3365,-20.1923 l -1.1625,-0.6769 0.7252,-0.5784 c 0.9914,-0.7904 11.6738,-6.5223 12.4223,-6.6654 0.829,-0.1585 4.6201,1.7697 44.1434,22.4512 41.5337,21.7334 44.379,23.2413 44.3832,23.5204 0,0.2656 -53.5807,29.9491 -67.5371,37.4124 l -2.8484,1.5232 z"
       id="path303" /></g></svg>
