<svg xmlns="http://www.w3.org/2000/svg" xmlns:xlink="http://www.w3.org/1999/xlink" width="450" zoomAndPan="magnify" viewBox="0 0 337.5 69.749997" height="93" preserveAspectRatio="xMidYMid meet" version="1.0"><defs><g/><clipPath id="d403fddf34"><path d="M 0.355469 0.0078125 L 336.648438 0.0078125 L 336.648438 69.492188 L 0.355469 69.492188 Z M 0.355469 0.0078125 " clip-rule="nonzero"/></clipPath><clipPath id="4f73d7442f"><path d="M 24.269531 0.0078125 L 312.734375 0.0078125 C 319.078125 0.0078125 325.160156 2.527344 329.644531 7.011719 C 334.128906 11.5 336.648438 17.582031 336.648438 23.921875 L 336.648438 45.578125 C 336.648438 51.917969 334.128906 58.003906 329.644531 62.488281 C 325.160156 66.972656 319.078125 69.492188 312.734375 69.492188 L 24.269531 69.492188 C 17.925781 69.492188 11.84375 66.972656 7.359375 62.488281 C 2.875 58.003906 0.355469 51.917969 0.355469 45.578125 L 0.355469 23.921875 C 0.355469 17.582031 2.875 11.5 7.359375 7.011719 C 11.84375 2.527344 17.925781 0.0078125 24.269531 0.0078125 Z M 24.269531 0.0078125 " clip-rule="nonzero"/></clipPath><clipPath id="3ac9eaabee"><path d="M 290.78125 9.484375 L 327.78125 9.484375 L 327.78125 43.476562 L 290.78125 43.476562 Z M 290.78125 9.484375 " clip-rule="nonzero"/></clipPath><clipPath id="90569a2d6b"><path d="M 283.875 9.484375 L 313.546875 9.484375 L 313.546875 56.234375 L 283.875 56.234375 Z M 283.875 9.484375 " clip-rule="nonzero"/></clipPath><clipPath id="cd554aee65"><path d="M 283.875 21.535156 L 327.78125 21.535156 L 327.78125 60.304688 L 283.875 60.304688 Z M 283.875 21.535156 " clip-rule="nonzero"/></clipPath></defs><g clip-path="url(#d403fddf34)"><g clip-path="url(#4f73d7442f)"><path fill="#ffffff" d="M 0.355469 0.0078125 L 336.636719 0.0078125 L 336.636719 69.492188 L 0.355469 69.492188 Z M 0.355469 0.0078125 " fill-opacity="1" fill-rule="nonzero"/></g></g><g clip-path="url(#3ac9eaabee)"><path fill="#16f2ba" d="M 290.828125 9.195312 L 290.828125 43.421875 L 297.957031 39.355469 L 297.957031 21.542969 L 327.953125 38.867188 L 327.953125 30.636719 L 290.828125 9.195312 " fill-opacity="1" fill-rule="nonzero"/></g><g clip-path="url(#90569a2d6b)"><path fill="#01b67a" d="M 290.828125 9.195312 L 283.699219 13.3125 L 283.699219 56.191406 L 313.503906 38.847656 L 306.285156 34.65625 L 297.957031 39.46875 L 297.957031 39.355469 L 290.828125 43.421875 L 290.828125 9.195312 " fill-opacity="1" fill-rule="nonzero"/></g><g clip-path="url(#cd554aee65)"><path fill="#1d3831" d="M 297.957031 21.542969 L 297.957031 29.8125 L 306.246094 34.632812 L 306.285156 34.65625 L 313.503906 38.847656 L 283.699219 56.191406 L 290.828125 60.304688 L 327.953125 38.867188 L 297.957031 21.542969 " fill-opacity="1" fill-rule="nonzero"/></g><path fill="#0055ff" d="M 19.335938 12.539062 L 226.09375 12.539062 C 232.171875 12.539062 237.097656 17.46875 237.097656 23.546875 L 237.097656 45.558594 C 237.097656 51.640625 232.171875 56.566406 226.09375 56.566406 L 19.335938 56.566406 C 13.257812 56.566406 8.328125 51.640625 8.328125 45.558594 L 8.328125 23.546875 C 8.328125 17.46875 13.257812 12.539062 19.335938 12.539062 Z M 19.335938 12.539062 " fill-opacity="1" fill-rule="nonzero"/><g fill="#ffffff" fill-opacity="1"><g transform="translate(19.980432, 43.634236)"><g><path d="M 1.1875 -2.796875 C 1.1875 -2.65625 1.171875 -2.46875 1.171875 -2.328125 C 1.140625 -2.15625 1.140625 -1.953125 1.140625 -1.78125 C 1.140625 0.0625 2.390625 0.0625 3 0.09375 C 3.109375 0.09375 3.234375 0.09375 3.34375 0.09375 C 3.671875 0.0625 3.984375 -0.03125 4.71875 -0.03125 C 4.8125 -0.03125 4.890625 -0.03125 4.984375 -0.03125 C 5.15625 -0.03125 5.359375 -0.03125 5.53125 -0.03125 C 5.765625 -0.03125 6 -0.03125 6.234375 -0.03125 C 6.609375 -0.03125 7.015625 0 7.390625 0 C 8.96875 0 9.5 -0.0625 10.78125 -0.09375 C 10.890625 -0.09375 11.015625 -0.09375 11.125 -0.09375 C 11.46875 -0.09375 11.625 0 12.375 0 C 13.390625 0 13.828125 -0.78125 13.828125 -1.75 C 13.828125 -2.296875 13.75 -2.828125 13.75 -3.375 C 13.75 -4.171875 13.78125 -4.921875 13.8125 -5.703125 C 13.8125 -5.828125 13.8125 -5.9375 13.8125 -6.0625 C 13.78125 -6.734375 13.375 -7.546875 12.75 -7.546875 C 12.4375 -7.546875 12.140625 -7.484375 11.828125 -7.484375 C 11.59375 -7.484375 11.359375 -7.578125 11.09375 -7.578125 C 10.421875 -7.578125 10.078125 -7.484375 9.734375 -7.484375 C 8.5625 -7.484375 8.46875 -8.671875 8.46875 -9.140625 C 8.46875 -9.578125 8.5 -9.984375 8.5 -10.421875 C 8.5 -10.578125 8.5 -10.71875 8.5 -10.859375 C 8.5 -11.125 8.46875 -11.390625 8.46875 -11.65625 C 8.46875 -11.734375 8.46875 -11.828125 8.46875 -11.90625 C 8.46875 -12.90625 8.5 -13.140625 8.5625 -13.421875 C 8.59375 -13.828125 8.59375 -14.015625 8.59375 -14.9375 C 8.59375 -15.375 8.59375 -15.8125 8.59375 -16.25 C 8.59375 -16.546875 8.59375 -16.828125 8.59375 -17.125 C 8.59375 -17.296875 8.59375 -17.46875 8.59375 -17.65625 C 8.5625 -18.578125 8.390625 -19.515625 6.4375 -19.515625 C 6.3125 -19.515625 6.203125 -19.515625 5.625 -19.453125 C 4.984375 -19.421875 5.25 -19.375 4.71875 -19.375 C 4.34375 -19.375 3.703125 -19.453125 2.90625 -19.453125 C 1.21875 -19.453125 1.109375 -18.84375 1.109375 -15.671875 C 1.109375 -14.96875 1.171875 -14.265625 1.171875 -13.578125 C 1.171875 -13.390625 1.171875 -13.21875 1.171875 -13.046875 C 1.171875 -12.40625 1.078125 -11.765625 1.078125 -11.125 C 1.078125 -10.984375 1.078125 -10.828125 1.078125 -10.6875 C 1.078125 -10.28125 1.046875 -9.875 1.046875 -9.46875 C 1.046875 -9.265625 1.046875 -9.09375 1.046875 -8.890625 C 1.078125 -7.109375 1.1875 -7.515625 1.1875 -6 Z M 1.1875 -2.796875 "/></g></g></g><g fill="#ffffff" fill-opacity="1"><g transform="translate(33.874167, 43.634236)"><g><path d="M 1.953125 -19.484375 C 1.578125 -19.421875 1.34375 -19.28125 1.21875 -19.046875 C 1.046875 -18.671875 0.96875 -18.234375 0.96875 -17.734375 L 1.046875 -16.046875 C 0.984375 -15.109375 0.96875 -14.59375 0.96875 -14.46875 C 0.96875 -13.984375 1.015625 -13.59375 1.140625 -13.375 C 1.25 -13.140625 1.65625 -12.84375 1.890625 -12.84375 L 2.671875 -12.875 C 2.828125 -12.875 2.96875 -12.8125 3.109375 -12.703125 C 3.234375 -12.609375 3.296875 -12.46875 3.296875 -12.296875 C 3.296875 -12.140625 3.171875 -11.828125 2.96875 -11.390625 L 2.859375 -10.921875 C 2.734375 -10.59375 2.671875 -10.390625 2.671875 -10.3125 C 2.671875 -9.953125 3 -9.78125 3.609375 -9.78125 C 3.703125 -9.78125 3.90625 -9.8125 4.28125 -9.84375 C 4.828125 -9.75 5.125 -9.734375 5.21875 -9.734375 C 5.625 -9.734375 5.9375 -9.8125 6.140625 -10.015625 C 6.234375 -10.109375 6.375 -10.3125 6.546875 -10.6875 C 6.78125 -11.015625 7.015625 -11.453125 7.21875 -11.96875 L 7.390625 -12.40625 C 7.484375 -12.578125 7.515625 -12.953125 7.515625 -13.578125 C 7.515625 -13.890625 7.515625 -14.15625 7.484375 -14.359375 C 7.453125 -14.890625 7.453125 -15.171875 7.453125 -15.265625 C 7.453125 -15.640625 7.484375 -16.34375 7.546875 -17.296875 L 7.546875 -17.96875 C 7.546875 -18.640625 7.28125 -19.078125 6.734375 -19.34375 C 6.578125 -19.421875 6.109375 -19.453125 5.296875 -19.453125 C 4.953125 -19.484375 4.71875 -19.484375 4.609375 -19.484375 C 4.484375 -19.484375 4.1875 -19.484375 3.734375 -19.453125 Z M 1.953125 -19.484375 "/></g></g></g><g fill="#ffffff" fill-opacity="1"><g transform="translate(42.379348, 43.634236)"><g><path d="M 1.21875 -15.875 C 1.21875 -15.578125 1.25 -15.40625 1.25 -14.9375 C 1.25 -14.59375 1.21875 -14.265625 1.21875 -13.921875 C 1.21875 -13.625 1.21875 -13.375 1.21875 -13.078125 L 1.21875 -10.015625 C 1.21875 -8.359375 1.390625 -8.328125 1.3125 -7.046875 C 1.28125 -6.53125 1.21875 -5.9375 1.21875 -5.390625 L 1.21875 -4.28125 C 1.21875 -3.46875 1.28125 -3.296875 1.25 -2.625 C 1.21875 -2.125 1.171875 -1.75 1.171875 -1.3125 C 1.171875 -0.78125 1.21875 -0.53125 1.421875 -0.328125 C 1.75 0 2.390625 0.109375 2.796875 0.09375 L 4.78125 0 L 6.171875 0 C 6.296875 0 6.4375 0.03125 6.546875 0.03125 C 6.703125 0.03125 6.875 0.03125 7.015625 0.03125 C 7.1875 0.03125 7.390625 0.0625 7.578125 0.0625 C 7.828125 0.0625 8.265625 0.0625 8.65625 -0.265625 C 8.96875 -0.53125 9.03125 -0.984375 9.0625 -1.21875 C 9.0625 -1.3125 9.0625 -1.390625 9.0625 -1.484375 C 9.03125 -1.859375 9.03125 -1.484375 8.9375 -2.21875 C 8.890625 -2.734375 8.828125 -3.0625 8.828125 -3.375 C 8.828125 -3.8125 8.890625 -4.25 8.90625 -4.6875 C 8.90625 -4.890625 8.90625 -5.09375 8.90625 -5.296875 C 8.90625 -5.359375 8.90625 -5.421875 8.90625 -5.46875 C 8.90625 -6.671875 8.828125 -6.34375 8.828125 -7.25 L 8.828125 -9.75 C 8.828125 -10.140625 8.859375 -10.453125 8.890625 -10.65625 C 8.90625 -10.890625 8.96875 -11.859375 8.96875 -12.171875 C 8.96875 -13.21875 8.796875 -14.328125 8.828125 -15.0625 L 8.890625 -16.046875 C 8.890625 -16.25 8.9375 -16.515625 8.9375 -16.984375 C 8.9375 -17.125 8.9375 -17.296875 8.9375 -17.453125 C 8.9375 -18 8.9375 -18.703125 8.359375 -19.171875 C 7.78125 -19.59375 6.78125 -19.578125 6.09375 -19.515625 L 5.53125 -19.453125 C 5.359375 -19.421875 4.71875 -19.375 4.3125 -19.375 C 3.5 -19.375 3.140625 -19.515625 2.53125 -19.515625 C 1.984375 -19.515625 1.75 -19.390625 1.546875 -19.1875 C 1.25 -18.90625 1.109375 -18.578125 1.140625 -18.0625 Z M 1.21875 -15.875 "/></g></g></g><g fill="#ffffff" fill-opacity="1"><g transform="translate(52.573912, 43.634236)"><g><path d="M 1.375 -12.578125 C 1.25 -9.90625 1.25 -9.296875 1.25 -8.5625 L 1.28125 -5.265625 C 1.28125 -4.109375 1.1875 -2.96875 1.078125 -1.8125 C 1.046875 -1.65625 1.046875 -1.484375 1.046875 -1.34375 C 1.046875 -0.9375 1.171875 -0.578125 1.34375 -0.375 C 1.484375 -0.203125 1.8125 0 2.21875 0 L 4.515625 -0.03125 C 5.09375 -0.03125 5.125 0.03125 7.484375 0.03125 C 8.03125 0.03125 8.25 -0.03125 8.46875 -0.234375 C 8.65625 -0.375 8.765625 -0.546875 8.765625 -0.9375 C 8.765625 -1.109375 8.734375 -1.25 8.703125 -1.421875 C 8.671875 -1.625 8.65625 -1.859375 8.65625 -2.0625 C 8.65625 -2.09375 8.65625 -2.15625 8.65625 -2.265625 L 8.65625 -2.796875 L 8.671875 -3.265625 C 8.703125 -3.90625 8.703125 -4.046875 8.703125 -4.109375 L 8.65625 -4.984375 C 8.59375 -5.765625 8.703125 -6 8.734375 -6.09375 C 8.859375 -6.34375 8.96875 -6.4375 9.09375 -6.4375 C 9.234375 -6.4375 9.46875 -6.3125 9.578125 -6.203125 C 9.78125 -6.03125 9.8125 -5.859375 10.046875 -5.5625 L 10.25 -5.296875 C 10.75 -4.65625 10.390625 -4.890625 11.15625 -4.015625 C 11.859375 -3.234375 11.765625 -3.234375 12.09375 -2.734375 C 12.875 -1.515625 12.984375 -1.421875 13.140625 -1.28125 C 13.625 -0.78125 13.859375 -0.34375 14.328125 -0.09375 C 14.59375 0.0625 14.859375 0.09375 15.703125 0.09375 L 15.9375 0.09375 C 16.28125 0.09375 16.546875 0.0625 17.0625 0.03125 C 17.46875 0 17.65625 0 17.90625 0 L 18.46875 0 C 18.609375 0 18.703125 0.03125 18.9375 0.0625 C 19.21875 0.0625 19.3125 0.09375 19.453125 0.09375 C 19.484375 0.09375 19.484375 0.09375 19.515625 0.09375 C 19.71875 0.09375 19.921875 0.0625 20.296875 -0.171875 C 20.53125 -0.375 20.671875 -0.640625 20.703125 -0.96875 C 20.703125 -1.015625 20.703125 -1.109375 20.703125 -1.171875 C 20.703125 -1.1875 20.703125 -1.21875 20.703125 -1.25 C 20.703125 -1.546875 20.625 -1.78125 20.59375 -2.1875 L 20.5625 -2.796875 C 20.5625 -2.828125 20.5625 -2.828125 20.5625 -2.859375 C 20.5625 -3.375 20.5625 -3.90625 20.5625 -4.421875 C 20.5625 -5.359375 20.625 -6.296875 20.625 -7.21875 C 20.625 -7.28125 20.625 -7.3125 20.625 -7.375 C 20.625 -7.609375 20.59375 -7.890625 20.5625 -8.703125 C 20.5 -9.46875 20.46875 -9.671875 20.46875 -9.9375 C 20.46875 -10.578125 20.5625 -10.546875 20.59375 -11.46875 C 20.59375 -11.65625 20.59375 -11.796875 20.59375 -11.96875 C 20.59375 -12.203125 20.625 -12.46875 20.625 -12.703125 C 20.625 -13.140625 20.5625 -13.625 20.5625 -14.125 C 20.5625 -14.328125 20.5625 -14.53125 20.5625 -14.734375 C 20.59375 -16.484375 20.765625 -16.515625 20.734375 -17.5625 C 20.734375 -18.0625 20.671875 -18.609375 20.265625 -19.015625 C 19.921875 -19.375 19.484375 -19.484375 18.875 -19.484375 C 18.75 -19.484375 18.671875 -19.484375 18.546875 -19.484375 C 18.296875 -19.484375 18.09375 -19.484375 17.5 -19.453125 L 17.03125 -19.421875 C 16.984375 -19.421875 16.890625 -19.421875 16.578125 -19.421875 C 16.421875 -19.421875 16.28125 -19.453125 16.140625 -19.453125 C 15.8125 -19.484375 15.46875 -19.515625 15.140625 -19.515625 L 14.65625 -19.515625 C 14.296875 -19.515625 13.953125 -19.390625 13.828125 -19.34375 C 13.59375 -19.25 13.171875 -18.9375 13.140625 -18.171875 C 13.140625 -18.109375 13.140625 -18.03125 13.140625 -17.96875 C 13.140625 -17.65625 13.21875 -17.125 13.21875 -16.59375 L 13.21875 -14.9375 C 13.21875 -14.796875 13.1875 -14.625 13.21875 -14.46875 C 13.21875 -14.421875 13.25 -14.328125 13.25 -14.265625 C 13.28125 -14.125 13.25 -14.015625 13.25 -13.859375 C 13.25 -13.71875 13.25 -13.515625 13.140625 -13.390625 C 13.078125 -13.34375 12.9375 -13.28125 12.84375 -13.28125 C 12.671875 -13.28125 12.46875 -13.375 12.375 -13.484375 L 11.671875 -14.421875 C 10.71875 -15.703125 11.5625 -14.796875 10.75 -15.953125 L 9.984375 -17.03125 C 9.703125 -17.453125 9.75 -17.46875 9 -18.640625 C 8.890625 -18.8125 8.734375 -19.046875 8.421875 -19.25 C 8.015625 -19.546875 7.625 -19.578125 7.046875 -19.578125 C 5.390625 -19.578125 5.859375 -19.375 3.609375 -19.484375 C 2.90625 -19.515625 2.0625 -19.625 1.65625 -19.25 C 1.484375 -19.109375 1.1875 -18.671875 1.1875 -17.734375 C 1.1875 -16.6875 1.546875 -16.078125 1.484375 -15.09375 Z M 1.375 -12.578125 "/></g></g></g><g fill="#ffffff" fill-opacity="1"><g transform="translate(74.361155, 43.634236)"><g><path d="M 14.359375 -4.21875 C 14.359375 -4.625 14.421875 -5.265625 14.421875 -5.625 C 14.421875 -6 14.390625 -6.546875 14.125 -6.90625 C 13.8125 -7.34375 13.171875 -7.390625 13.046875 -7.390625 C 12.953125 -7.390625 12.90625 -7.390625 12.8125 -7.390625 C 12.546875 -7.375 11.265625 -7.1875 10.921875 -7.140625 C 10.390625 -7.140625 9.609375 -7.21875 9.140625 -7.453125 C 7.984375 -8.015625 7.8125 -9.296875 7.8125 -9.90625 C 7.8125 -10.59375 8.25 -11.25 8.65625 -11.5625 C 8.890625 -11.734375 9.234375 -11.96875 9.78125 -12.03125 C 10.3125 -12.09375 10.515625 -12 11.21875 -12.0625 L 12.109375 -12.109375 C 12.546875 -12.140625 12.53125 -12.03125 13.1875 -12.03125 C 13.515625 -12.03125 13.78125 -12.09375 14.015625 -12.34375 C 14.59375 -12.984375 14.1875 -14.03125 14.1875 -15.46875 L 14.1875 -16.1875 C 14.1875 -16.8125 14.265625 -16.890625 14.296875 -17.765625 C 14.296875 -17.90625 14.296875 -18.03125 14.296875 -18.171875 C 14.296875 -18.53125 14.234375 -18.671875 14.21875 -18.75 C 13.8125 -19.6875 11.359375 -19.515625 10.390625 -19.515625 C 7.6875 -19.515625 6.09375 -19.078125 5.390625 -18.734375 C 4.71875 -18.40625 3.40625 -17.5 2.59375 -16.625 C 2.15625 -16.140625 1.65625 -15.53125 0.8125 -13.28125 C 0.703125 -12.9375 0.328125 -12.0625 0.328125 -10.546875 C 0.328125 -9.40625 0.671875 -6.703125 1.015625 -5.625 C 1.375 -4.609375 1.8125 -4.171875 2.765625 -2.890625 C 3.671875 -1.65625 3.984375 -1.453125 4.78125 -1.015625 C 5.53125 -0.609375 7.046875 0.109375 10.578125 0.171875 C 10.6875 0.171875 10.78125 0.171875 10.890625 0.171875 C 12.9375 0.140625 13.515625 -0.0625 14.03125 -0.546875 C 14.46875 -0.984375 14.5 -1.3125 14.5 -1.484375 C 14.5 -1.546875 14.46875 -1.609375 14.46875 -1.65625 C 14.46875 -1.78125 14.46875 -1.859375 14.46875 -1.984375 C 14.5 -2.453125 14.359375 -2.9375 14.359375 -3.40625 Z M 14.359375 -4.21875 "/></g></g></g><g fill="#ffffff" fill-opacity="1"><g transform="translate(89.36173, 43.634236)"><g><path d="M 4.78125 -19.453125 C 4.546875 -19.453125 4.3125 -19.421875 4.078125 -19.421875 C 3.375 -19.421875 2.671875 -19.453125 1.953125 -19.453125 C 1.390625 -19.453125 0.78125 -19.28125 0.75 -18.171875 C 0.75 -18.0625 0.75 -17.9375 0.75 -17.828125 C 0.75 -17.65625 0.78125 -17.453125 0.78125 -17.265625 C 0.78125 -16.78125 0.734375 -16.28125 0.734375 -15.78125 C 0.734375 -15.34375 0.75 -14.890625 0.78125 -14.453125 C 0.84375 -13.28125 0.734375 -12.109375 0.78125 -10.953125 C 0.8125 -10.421875 0.875 -9.875 0.875 -9.34375 C 0.875 -9.03125 0.8125 -8.703125 0.8125 -8.390625 C 0.8125 -8.15625 0.8125 -7.953125 0.8125 -7.71875 C 0.8125 -7.34375 0.78125 -6.984375 0.8125 -6.609375 C 0.84375 -5.765625 0.875 -5.734375 0.984375 -5.359375 C 1.078125 -5.03125 1.140625 -4.8125 1.21875 -4.453125 C 1.28125 -4.21875 1.3125 -4.21875 1.421875 -4.078125 C 2.015625 -3.3125 1.953125 -2.734375 2.96875 -1.890625 C 3.40625 -1.546875 4.1875 -1.078125 4.578125 -0.84375 C 5.265625 -0.375 5.5 -0.03125 7.078125 0.265625 C 7.546875 0.34375 8.0625 0.40625 8.5625 0.40625 C 8.828125 0.40625 9.09375 0.34375 9.34375 0.34375 C 9.4375 0.34375 9.5 0.34375 9.578125 0.34375 C 10.1875 0.375 9.984375 0.46875 10.78125 0.46875 C 11.328125 0.46875 11.5625 0.4375 11.890625 0.375 C 12.3125 0.328125 12.5 0.34375 12.84375 0.34375 C 14.296875 0.375 15.46875 0.265625 16.828125 -0.640625 C 17.703125 -1.21875 18.09375 -1.484375 18.546875 -2.359375 C 18.984375 -3.171875 19.3125 -3.53125 19.421875 -3.875 C 19.484375 -4.046875 19.515625 -4.21875 19.578125 -4.390625 C 19.625 -4.546875 19.6875 -4.6875 19.75 -4.828125 C 19.828125 -5.03125 19.921875 -5.359375 19.984375 -5.5625 C 20.0625 -6 20.125 -6.75 20.1875 -9.609375 C 20.1875 -9.953125 20.1875 -10.28125 20.1875 -10.625 C 20.15625 -11.421875 20.09375 -12 20.09375 -12.546875 C 20.09375 -14.125 20.359375 -14.125 20.359375 -15.34375 C 20.359375 -15.84375 20.328125 -16.34375 20.328125 -16.828125 C 20.328125 -17.15625 20.359375 -17.46875 20.359375 -17.796875 C 20.359375 -19.25 19.546875 -19.546875 18.875 -19.578125 C 18.78125 -19.578125 18.671875 -19.578125 18.578125 -19.578125 C 17.734375 -19.546875 17.625 -19.421875 16.75 -19.421875 C 16.34375 -19.421875 15.953125 -19.484375 15.546875 -19.484375 C 15.265625 -19.484375 14.96875 -19.484375 14.671875 -19.515625 C 14.453125 -19.515625 14.1875 -19.546875 13.953125 -19.546875 C 13.921875 -19.546875 13.890625 -19.546875 13.859375 -19.546875 C 12.671875 -19.453125 12.296875 -18.953125 12.671875 -17.65625 C 12.578125 -16.546875 12.671875 -16.3125 12.671875 -15.90625 C 12.671875 -15.609375 12.609375 -15.34375 12.609375 -15.0625 C 12.609375 -14.859375 12.609375 -14.65625 12.609375 -14.453125 C 12.609375 -14.125 12.578125 -13.828125 12.609375 -13.515625 C 12.640625 -13.21875 12.75 -12.953125 12.75 -12.671875 C 12.75 -11.9375 12.703125 -11.125 12.703125 -9.46875 C 12.703125 -9.265625 12.703125 -9.09375 12.703125 -8.890625 C 12.703125 -7.828125 12.8125 -7.375 11.828125 -6.78125 C 11.59375 -6.640625 11.15625 -6.46875 10.890625 -6.46875 C 10.59375 -6.46875 9.78125 -6.5 9.234375 -6.734375 C 8.421875 -7.078125 8.21875 -7.859375 8.21875 -8.09375 C 8.21875 -8.15625 8.21875 -8.1875 8.21875 -8.25 C 8.21875 -8.5 8.15625 -8.734375 8.15625 -9.703125 C 8.15625 -9.78125 8.15625 -9.875 8.15625 -9.953125 C 8.15625 -10.25 8.09375 -10.578125 8.09375 -10.859375 C 8.09375 -11.5625 8.21875 -11.765625 8.265625 -12.4375 C 8.296875 -12.9375 8.21875 -13.453125 8.265625 -13.953125 C 8.296875 -14.234375 8.359375 -14.359375 8.390625 -14.859375 C 8.390625 -15.03125 8.390625 -15.171875 8.390625 -15.34375 C 8.359375 -15.640625 8.296875 -15.703125 8.296875 -15.9375 C 8.296875 -16.71875 8.421875 -17.390625 8.421875 -17.765625 C 8.421875 -17.796875 8.421875 -17.859375 8.421875 -17.875 C 8.421875 -17.90625 8.421875 -17.9375 8.421875 -17.96875 C 8.421875 -19.71875 6.984375 -19.453125 5.96875 -19.453125 Z M 4.78125 -19.453125 "/></g></g></g><g fill="#ffffff" fill-opacity="1"><g transform="translate(110.449918, 43.634236)"><g><path d="M 1.375 -12.75 C 1.390625 -12.34375 1.34375 -11.90625 1.3125 -11.5 C 1.25 -10.375 1.34375 -9.265625 1.3125 -8.125 C 1.28125 -7.25 1.21875 -6.953125 1.21875 -6.40625 C 1.21875 -6.375 1.21875 -6.375 1.21875 -6.34375 C 1.21875 -6.34375 1.21875 -6.3125 1.21875 -6.3125 C 1.21875 -5.828125 1.25 -6.171875 1.28125 -5.5625 C 1.28125 -5.421875 1.28125 -5.265625 1.28125 -5.125 C 1.28125 -4.890625 1.3125 -4.6875 1.3125 -4.453125 C 1.3125 -2.96875 1.046875 -2.296875 1.046875 -1.578125 C 1.046875 -1.046875 1.25 -0.671875 1.375 -0.5 C 1.859375 0.171875 2.734375 0 3.265625 0 L 7.375 0 C 8.53125 0 8.5625 0.0625 9.234375 0.0625 C 9.4375 0.0625 9.609375 0.03125 9.8125 0.03125 C 10.015625 0.03125 10.1875 0.03125 10.390625 0.03125 C 10.828125 0.03125 11.25 0 11.671875 0 L 12.265625 0 C 15.703125 0 15.09375 0.265625 16.828125 -0.46875 C 17.859375 -0.875 19.390625 -1.578125 20.359375 -4.390625 C 20.46875 -4.78125 20.625 -5.21875 20.625 -5.734375 C 20.625 -6.375 20.265625 -7.6875 19.890625 -8.390625 C 19.71875 -8.734375 19.140625 -9.5 18.703125 -9.78125 L 18.09375 -10.171875 C 18 -10.21875 17.828125 -10.25 17.796875 -10.375 C 17.796875 -10.390625 17.796875 -10.421875 17.796875 -10.453125 C 17.828125 -10.65625 17.875 -10.625 18.609375 -11.328125 C 19.390625 -12.09375 19.515625 -12.9375 19.546875 -13.984375 C 19.546875 -14.125 19.546875 -14.296875 19.546875 -14.453125 C 19.484375 -15.375 19.140625 -16.046875 18.4375 -16.953125 C 17.625 -18 16.953125 -18.4375 16.515625 -18.640625 C 16.015625 -18.875 14.96875 -19.171875 14.5625 -19.25 C 13.484375 -19.515625 12.734375 -19.515625 12.4375 -19.515625 L 10.828125 -19.484375 L 8.46875 -19.484375 C 7.71875 -19.484375 7.8125 -19.578125 7.25 -19.546875 C 6.703125 -19.515625 6.5 -19.421875 6.0625 -19.421875 L 4.6875 -19.421875 C 4.453125 -19.421875 4.375 -19.515625 3.8125 -19.515625 C 2.625 -19.515625 1.828125 -19.078125 1.578125 -18.578125 C 1.3125 -18.109375 1.1875 -16.65625 1.21875 -15.90625 Z M 10.828125 -5.828125 C 10.75 -5.828125 10.625 -5.796875 10.546875 -5.796875 C 10.3125 -5.765625 10.078125 -5.734375 9.84375 -5.734375 C 9.34375 -5.734375 9.109375 -5.859375 8.90625 -6 C 8.671875 -6.171875 8.53125 -6.375 8.53125 -6.90625 C 8.53125 -7.140625 8.5625 -7.453125 8.890625 -7.6875 C 9.265625 -7.953125 9.375 -7.890625 9.953125 -7.890625 L 10.3125 -7.890625 C 10.390625 -7.890625 10.453125 -7.921875 10.546875 -7.953125 C 10.71875 -8.015625 10.859375 -8.015625 11.03125 -8.015625 C 11.5625 -8.015625 12.265625 -7.890625 12.75 -7.609375 C 12.90625 -7.515625 13.1875 -7.34375 13.1875 -6.8125 C 13.1875 -6.296875 12.90625 -6.109375 12.75 -6.03125 C 12.171875 -5.703125 12.109375 -5.828125 11.265625 -5.828125 Z M 9.296875 -12.171875 C 9.03125 -12.171875 8.828125 -12.296875 8.703125 -12.46875 C 8.53125 -12.703125 8.53125 -12.9375 8.53125 -12.984375 C 8.53125 -13.28125 8.625 -13.65625 8.9375 -13.890625 C 9.140625 -14.03125 9.546875 -14.21875 10.390625 -14.21875 C 10.890625 -14.21875 11.5625 -14.1875 12.0625 -13.921875 C 12.53125 -13.6875 12.578125 -13.34375 12.578125 -13.140625 C 12.578125 -12.90625 12.4375 -12.703125 12.3125 -12.546875 C 12.203125 -12.40625 11.96875 -12.140625 11.5625 -12.140625 C 11.453125 -12.140625 11.328125 -12.171875 11.125 -12.203125 C 10.859375 -12.234375 10.71875 -12.234375 10.546875 -12.234375 Z M 9.296875 -12.171875 "/></g></g></g><g fill="#ffffff" fill-opacity="1"><g transform="translate(131.479844, 43.634236)"><g><path d="M 2.9375 -13.59375 C 2.390625 -12.0625 2.453125 -11.671875 2.265625 -10.78125 C 2.125 -10.046875 1.890625 -9.3125 1.609375 -8.390625 C 1.28125 -7.390625 1.28125 -7.3125 1.109375 -6.75 C 1.015625 -6.53125 0.84375 -6.0625 0.703125 -5.5625 C 0.34375 -4.484375 0.234375 -3.90625 0.140625 -3.546875 C 0 -2.96875 -0.109375 -2.796875 -0.234375 -2.46875 C -0.328125 -2.21875 -0.375 -1.921875 -0.375 -1.625 C -0.375 -0.984375 -0.171875 -0.578125 0.0625 -0.375 C 0.546875 0.09375 1.390625 -0.03125 2.0625 0 L 3.78125 0.0625 L 4.390625 0.0625 C 5.5625 0.0625 4.78125 -0.03125 5.765625 0 C 5.90625 0 6.0625 0.03125 6.203125 0 C 6.34375 -0.03125 6.640625 -0.140625 6.75 -0.265625 C 6.875 -0.34375 6.9375 -0.53125 7.1875 -0.984375 L 7.65625 -1.8125 C 7.6875 -1.828125 7.71875 -1.890625 7.75 -1.921875 C 7.78125 -1.953125 7.78125 -1.984375 7.8125 -2.015625 C 7.984375 -2.25 8.328125 -2.265625 8.59375 -2.265625 C 8.765625 -2.265625 8.859375 -2.25 9.46875 -2.21875 L 10.453125 -2.15625 C 11.25 -2.09375 11.90625 -2.390625 12.609375 -2.125 C 13.109375 -1.953125 13.25 -1.625 13.421875 -1.28125 L 13.65625 -0.78125 C 13.921875 -0.203125 14.265625 -0.03125 14.46875 0.03125 C 14.828125 0.109375 15.609375 -0.03125 16.828125 0 L 18.609375 0.03125 C 18.734375 0.03125 18.8125 0.03125 18.9375 0.03125 C 19.046875 0.03125 19.171875 0.0625 19.28125 0.0625 C 19.375 0.0625 19.421875 0.0625 19.515625 0.0625 C 20.328125 0.03125 20.5 -0.171875 20.65625 -0.4375 C 20.859375 -0.75 20.828125 -0.8125 20.828125 -1.046875 C 20.828125 -1.109375 20.828125 -1.1875 20.828125 -1.25 C 20.828125 -1.375 20.734375 -1.75 20.625 -2.0625 C 20.53125 -2.25 20.46875 -2.390625 20.390625 -2.671875 C 20.328125 -2.859375 20.265625 -3 20.234375 -3.140625 C 19.984375 -4.078125 19.859375 -5.03125 19.546875 -5.96875 L 19.375 -6.5 C 19.046875 -7.484375 18.953125 -7.8125 18.78125 -8.65625 C 18.4375 -10.21875 18.375 -10.453125 18.3125 -10.65625 L 18.203125 -10.984375 C 18.03125 -11.46875 18.09375 -11.359375 17.96875 -11.59375 C 17.9375 -11.65625 17.90625 -11.703125 17.875 -11.765625 C 17.859375 -11.90625 17.828125 -11.96875 17.671875 -12.609375 L 17.390625 -13.78125 C 17.234375 -14.359375 17.015625 -14.9375 16.78125 -15.5 C 16.625 -15.84375 16.484375 -16.21875 16.390625 -16.59375 L 16.25 -17.1875 C 16.046875 -17.9375 15.875 -18.609375 15.34375 -18.984375 C 14.796875 -19.390625 14.03125 -19.453125 13.65625 -19.453125 C 13.375 -19.453125 13.046875 -19.421875 12.75 -19.421875 C 12.375 -19.421875 11.328125 -19.421875 10.859375 -19.453125 L 10.375 -19.484375 L 9.46875 -19.515625 C 9.234375 -19.515625 9.03125 -19.484375 8.796875 -19.484375 C 8.59375 -19.484375 8.359375 -19.453125 8.15625 -19.453125 C 6.9375 -19.375 8.03125 -19.515625 6.53125 -19.453125 C 5.9375 -19.421875 5.453125 -19.390625 5.03125 -19.109375 C 4.515625 -18.734375 4.25 -18.03125 4.1875 -17.828125 C 3.84375 -16.75 3.53125 -15.265625 3.3125 -14.671875 Z M 9.46875 -8.421875 C 9.296875 -8.421875 9.0625 -8.453125 8.90625 -8.671875 C 8.828125 -8.828125 8.828125 -9.09375 8.828125 -9.171875 C 8.828125 -9.40625 8.9375 -9.5 9.0625 -10.015625 C 9.140625 -10.375 9.171875 -10.6875 9.265625 -10.984375 C 9.34375 -11.265625 9.46875 -11.59375 9.609375 -12.0625 C 9.671875 -12.296875 9.75 -12.609375 9.90625 -12.734375 C 9.9375 -12.75 10.078125 -12.875 10.25 -12.875 C 10.375 -12.875 10.515625 -12.84375 10.625 -12.734375 C 10.75 -12.609375 10.890625 -12.34375 10.953125 -12.203125 C 11.03125 -11.9375 11.453125 -10.453125 11.5 -10.171875 L 11.671875 -9.40625 C 11.734375 -9.171875 11.796875 -8.9375 11.625 -8.703125 C 11.453125 -8.5 11.1875 -8.421875 10.171875 -8.421875 Z M 9.46875 -8.421875 "/></g></g></g><g fill="#ffffff" fill-opacity="1"><g transform="translate(151.8981, 43.634236)"><g><path d="M -0.0625 -14.765625 C -0.09375 -14.125 0.0625 -13.890625 0.140625 -13.78125 C 0.40625 -13.390625 0.609375 -13.34375 1.828125 -13.21875 L 2.5 -13.171875 C 2.796875 -13.140625 3.09375 -13.171875 3.34375 -12.90625 C 3.578125 -12.703125 3.78125 -12.234375 3.75 -11.734375 L 3.671875 -9.78125 C 3.671875 -9.46875 3.734375 -9.40625 3.734375 -8.828125 C 3.734375 -8.59375 3.734375 -8.328125 3.640625 -7.546875 C 3.5 -5.890625 3.609375 -6.03125 3.609375 -5.5625 L 3.640625 -3.9375 C 3.671875 -1.75 3.546875 -2.9375 3.546875 -1.28125 C 3.546875 -1.046875 3.546875 -0.78125 3.90625 -0.40625 C 4.1875 -0.09375 4.484375 0.03125 5.09375 0.03125 C 5.671875 0.03125 5.453125 0 6.140625 0 L 7.390625 0 C 8.453125 0 8.734375 0.0625 9.296875 0.0625 C 10.421875 0.0625 10.546875 0 10.921875 -0.40625 C 11.21875 -0.734375 11.296875 -0.90625 11.296875 -1.390625 C 11.296875 -1.6875 11.25 -1.890625 11.21875 -2.0625 C 11.15625 -2.328125 11.09375 -2.671875 11.09375 -3.0625 L 11.09375 -5.828125 C 11.09375 -7.078125 11.0625 -8.015625 11.1875 -8.828125 C 11.21875 -9 11.25 -9.296875 11.25 -9.609375 C 11.25 -9.90625 11.1875 -10.015625 11.1875 -10.953125 C 11.1875 -11.890625 11.21875 -12.53125 11.703125 -12.90625 C 12.0625 -13.171875 12.609375 -13.25 13.078125 -13.25 C 13.59375 -13.25 13.578125 -13.171875 14.1875 -13.171875 C 14.59375 -13.171875 14.828125 -13.28125 14.9375 -13.375 C 15.265625 -13.65625 15.265625 -13.953125 15.265625 -14.125 C 15.265625 -14.734375 15.203125 -15.3125 15.171875 -15.9375 C 15.171875 -16.1875 15.140625 -16.421875 15.171875 -16.6875 C 15.203125 -17.015625 15.296875 -17.59375 15.296875 -18.109375 C 15.296875 -18.46875 15.203125 -18.90625 14.859375 -19.140625 C 14.53125 -19.375 13.828125 -19.515625 13.109375 -19.515625 C 10.921875 -19.515625 11.796875 -19.34375 10.3125 -19.375 L 6.3125 -19.453125 C 5.328125 -19.484375 5.359375 -19.390625 4.28125 -19.390625 L 3.78125 -19.390625 C 3.671875 -19.390625 3.5 -19.390625 2.90625 -19.453125 C 2.46875 -19.484375 1.984375 -19.578125 1.515625 -19.578125 C 1.34375 -19.578125 0.640625 -19.578125 0.296875 -19.25 C 0 -19.015625 -0.09375 -18.53125 -0.09375 -18.109375 C -0.09375 -17.9375 -0.0625 -17.328125 -0.03125 -17.0625 C 0 -16.953125 0 -16.890625 0 -16.78125 L 0 -16.21875 Z M -0.0625 -14.765625 "/></g></g></g><g fill="#ffffff" fill-opacity="1"><g transform="translate(167.073432, 43.634236)"><g><path d="M 1.171875 -15.9375 C 1.171875 -15.8125 1.171875 -15.203125 1.171875 -15.09375 C 1.140625 -14.15625 1.046875 -14.53125 1.046875 -13.34375 C 1.046875 -12.140625 1.140625 -11.734375 1.171875 -10.921875 C 1.21875 -9.90625 1.078125 -10.6875 1.25 -8.5625 C 1.3125 -8.03125 1.3125 -7.28125 1.3125 -6.84375 C 1.3125 -6.40625 1.21875 -5.96875 1.21875 -5.453125 L 1.140625 -2.25 C 1.140625 -2.015625 1.140625 -1.78125 1.109375 -1.546875 C 1.109375 -1.390625 1.078125 -1.28125 1.078125 -1.140625 C 1.078125 -0.578125 1.1875 -0.375 1.390625 -0.203125 C 1.65625 0.03125 1.890625 0.109375 2.359375 0.109375 C 2.421875 0.109375 2.453125 0.109375 2.5 0.109375 C 4.109375 0.09375 3.84375 0 4.8125 0 L 7.21875 0.03125 C 7.625 0.03125 8.625 0.03125 9.109375 0 C 9.375 0 9.671875 -0.03125 9.9375 0 C 10.3125 0.03125 10.75 0.109375 11.21875 0.109375 C 11.359375 0.109375 11.5 0.09375 11.65625 0.09375 C 11.859375 0.09375 12.0625 0.09375 12.296875 0.0625 C 13.25 0.03125 12.40625 -0.0625 13.25 -0.0625 L 13.6875 -0.0625 C 14.03125 -0.0625 13.78125 0 14.53125 0.03125 C 14.765625 0.03125 14.96875 0.0625 15.203125 0.03125 C 16.140625 -0.03125 16.515625 -0.4375 16.375 -2.9375 L 16.34375 -3.5 C 16.3125 -4.1875 16.375 -3.53125 16.375 -4.390625 C 16.375 -4.6875 16.3125 -5.421875 15.8125 -5.859375 C 15.546875 -6.09375 15.265625 -6.109375 14.96875 -6.109375 C 14.890625 -6.109375 14.765625 -6.109375 14.671875 -6.109375 C 14.53125 -6.109375 14.359375 -6.09375 14.21875 -6.09375 C 14.03125 -6.09375 13.859375 -6.09375 13.6875 -6.09375 L 12.984375 -6.09375 C 12.4375 -6.09375 11.796875 -6.0625 11.328125 -6.03125 C 11.015625 -6 10.578125 -5.9375 10.046875 -5.9375 C 9.734375 -5.9375 9.34375 -5.96875 9.0625 -6.203125 C 8.828125 -6.375 8.765625 -6.609375 8.765625 -6.75 C 8.765625 -6.875 8.859375 -7.046875 8.9375 -7.171875 C 9.03125 -7.25 9.234375 -7.421875 9.546875 -7.421875 C 9.640625 -7.421875 9.75 -7.390625 9.84375 -7.390625 C 10.046875 -7.375 10.21875 -7.390625 10.421875 -7.390625 L 11.765625 -7.375 C 12.984375 -7.34375 12.90625 -7.453125 14.15625 -7.484375 C 14.359375 -7.484375 14.53125 -7.484375 14.734375 -7.484375 C 15.0625 -7.484375 15.203125 -7.546875 15.375 -7.71875 C 15.578125 -7.890625 15.671875 -8.0625 15.671875 -8.53125 C 15.671875 -8.765625 15.640625 -8.9375 15.609375 -9.109375 C 15.546875 -9.4375 15.578125 -9.53125 15.578125 -9.703125 L 15.53125 -11.296875 C 15.53125 -11.453125 15.5 -11.734375 15.296875 -12.09375 C 15.0625 -12.46875 14.625 -12.5 14.234375 -12.5 C 13.8125 -12.5 13.34375 -12.40625 12.90625 -12.40625 C 12.40625 -12.40625 11.890625 -12.4375 11.390625 -12.40625 C 10.953125 -12.375 10.890625 -12.34375 10.59375 -12.3125 C 10.421875 -12.3125 10.28125 -12.3125 10.109375 -12.3125 C 9.609375 -12.3125 9.0625 -12.296875 8.734375 -12.53125 C 8.53125 -12.671875 8.5 -12.875 8.5 -13.078125 C 8.5 -13.75 9 -13.8125 9.34375 -13.8125 C 9.734375 -13.8125 10.078125 -13.75 10.453125 -13.75 C 10.890625 -13.75 11.359375 -13.890625 11.796875 -13.828125 L 12.171875 -13.78125 C 12.609375 -13.71875 12.84375 -13.71875 13.015625 -13.71875 C 13.046875 -13.71875 13.078125 -13.71875 13.109375 -13.71875 C 13.25 -13.71875 13.390625 -13.75 13.546875 -13.75 C 13.59375 -13.75 13.6875 -13.75 13.75 -13.75 C 14.03125 -13.75 14.328125 -13.6875 14.625 -13.6875 C 15.109375 -13.6875 15.296875 -13.8125 15.46875 -14.015625 C 15.640625 -14.21875 15.78125 -14.5 15.78125 -15.0625 C 15.78125 -16.171875 15.671875 -15.5 15.671875 -16.390625 L 15.671875 -17.03125 C 15.671875 -17.390625 15.671875 -17.46875 15.671875 -17.5625 C 15.671875 -17.765625 15.703125 -17.96875 15.703125 -18.171875 C 15.703125 -18.46875 15.640625 -18.953125 15.171875 -19.3125 C 15 -19.421875 14.734375 -19.578125 14.09375 -19.578125 C 13.484375 -19.578125 13.984375 -19.515625 12.609375 -19.484375 C 12.4375 -19.484375 12.265625 -19.484375 12.09375 -19.484375 C 11.671875 -19.484375 11.25 -19.421875 10.828125 -19.421875 C 10.421875 -19.421875 9.984375 -19.453125 9.578125 -19.453125 C 9.46875 -19.453125 9.34375 -19.453125 9.234375 -19.453125 C 8.96875 -19.453125 8.734375 -19.484375 8.46875 -19.484375 C 8.296875 -19.484375 8.09375 -19.484375 7.921875 -19.484375 C 7.546875 -19.484375 7.171875 -19.515625 6.78125 -19.515625 C 5.96875 -19.515625 5.21875 -19.453125 4.515625 -19.453125 C 4.015625 -19.453125 3.53125 -19.59375 3.03125 -19.59375 C 2.90625 -19.59375 2.0625 -19.59375 1.578125 -19.171875 C 1.28125 -18.90625 1.015625 -18.375 1.046875 -17.734375 Z M 1.171875 -15.9375 "/></g></g></g><g fill="#ffffff" fill-opacity="1"><g transform="translate(184.171167, 43.634236)"><g><path d="M 4.78125 -19.453125 C 4.546875 -19.453125 4.3125 -19.421875 4.078125 -19.421875 C 3.375 -19.421875 2.671875 -19.453125 1.953125 -19.453125 C 1.390625 -19.453125 0.78125 -19.28125 0.75 -18.171875 C 0.75 -18.0625 0.75 -17.9375 0.75 -17.828125 C 0.75 -17.65625 0.78125 -17.453125 0.78125 -17.265625 C 0.78125 -16.78125 0.734375 -16.28125 0.734375 -15.78125 C 0.734375 -15.34375 0.75 -14.890625 0.78125 -14.453125 C 0.84375 -13.28125 0.734375 -12.109375 0.78125 -10.953125 C 0.8125 -10.421875 0.875 -9.875 0.875 -9.34375 C 0.875 -9.03125 0.8125 -8.703125 0.8125 -8.390625 C 0.8125 -8.15625 0.8125 -7.953125 0.8125 -7.71875 C 0.8125 -7.34375 0.78125 -6.984375 0.8125 -6.609375 C 0.84375 -5.765625 0.875 -5.734375 0.984375 -5.359375 C 1.078125 -5.03125 1.140625 -4.8125 1.21875 -4.453125 C 1.28125 -4.21875 1.3125 -4.21875 1.421875 -4.078125 C 2.015625 -3.3125 1.953125 -2.734375 2.96875 -1.890625 C 3.40625 -1.546875 4.1875 -1.078125 4.578125 -0.84375 C 5.265625 -0.375 5.5 -0.03125 7.078125 0.265625 C 7.546875 0.34375 8.0625 0.40625 8.5625 0.40625 C 8.828125 0.40625 9.09375 0.34375 9.34375 0.34375 C 9.4375 0.34375 9.5 0.34375 9.578125 0.34375 C 10.1875 0.375 9.984375 0.46875 10.78125 0.46875 C 11.328125 0.46875 11.5625 0.4375 11.890625 0.375 C 12.3125 0.328125 12.5 0.34375 12.84375 0.34375 C 14.296875 0.375 15.46875 0.265625 16.828125 -0.640625 C 17.703125 -1.21875 18.09375 -1.484375 18.546875 -2.359375 C 18.984375 -3.171875 19.3125 -3.53125 19.421875 -3.875 C 19.484375 -4.046875 19.515625 -4.21875 19.578125 -4.390625 C 19.625 -4.546875 19.6875 -4.6875 19.75 -4.828125 C 19.828125 -5.03125 19.921875 -5.359375 19.984375 -5.5625 C 20.0625 -6 20.125 -6.75 20.1875 -9.609375 C 20.1875 -9.953125 20.1875 -10.28125 20.1875 -10.625 C 20.15625 -11.421875 20.09375 -12 20.09375 -12.546875 C 20.09375 -14.125 20.359375 -14.125 20.359375 -15.34375 C 20.359375 -15.84375 20.328125 -16.34375 20.328125 -16.828125 C 20.328125 -17.15625 20.359375 -17.46875 20.359375 -17.796875 C 20.359375 -19.25 19.546875 -19.546875 18.875 -19.578125 C 18.78125 -19.578125 18.671875 -19.578125 18.578125 -19.578125 C 17.734375 -19.546875 17.625 -19.421875 16.75 -19.421875 C 16.34375 -19.421875 15.953125 -19.484375 15.546875 -19.484375 C 15.265625 -19.484375 14.96875 -19.484375 14.671875 -19.515625 C 14.453125 -19.515625 14.1875 -19.546875 13.953125 -19.546875 C 13.921875 -19.546875 13.890625 -19.546875 13.859375 -19.546875 C 12.671875 -19.453125 12.296875 -18.953125 12.671875 -17.65625 C 12.578125 -16.546875 12.671875 -16.3125 12.671875 -15.90625 C 12.671875 -15.609375 12.609375 -15.34375 12.609375 -15.0625 C 12.609375 -14.859375 12.609375 -14.65625 12.609375 -14.453125 C 12.609375 -14.125 12.578125 -13.828125 12.609375 -13.515625 C 12.640625 -13.21875 12.75 -12.953125 12.75 -12.671875 C 12.75 -11.9375 12.703125 -11.125 12.703125 -9.46875 C 12.703125 -9.265625 12.703125 -9.09375 12.703125 -8.890625 C 12.703125 -7.828125 12.8125 -7.375 11.828125 -6.78125 C 11.59375 -6.640625 11.15625 -6.46875 10.890625 -6.46875 C 10.59375 -6.46875 9.78125 -6.5 9.234375 -6.734375 C 8.421875 -7.078125 8.21875 -7.859375 8.21875 -8.09375 C 8.21875 -8.15625 8.21875 -8.1875 8.21875 -8.25 C 8.21875 -8.5 8.15625 -8.734375 8.15625 -9.703125 C 8.15625 -9.78125 8.15625 -9.875 8.15625 -9.953125 C 8.15625 -10.25 8.09375 -10.578125 8.09375 -10.859375 C 8.09375 -11.5625 8.21875 -11.765625 8.265625 -12.4375 C 8.296875 -12.9375 8.21875 -13.453125 8.265625 -13.953125 C 8.296875 -14.234375 8.359375 -14.359375 8.390625 -14.859375 C 8.390625 -15.03125 8.390625 -15.171875 8.390625 -15.34375 C 8.359375 -15.640625 8.296875 -15.703125 8.296875 -15.9375 C 8.296875 -16.71875 8.421875 -17.390625 8.421875 -17.765625 C 8.421875 -17.796875 8.421875 -17.859375 8.421875 -17.875 C 8.421875 -17.90625 8.421875 -17.9375 8.421875 -17.96875 C 8.421875 -19.71875 6.984375 -19.453125 5.96875 -19.453125 Z M 4.78125 -19.453125 "/></g></g></g><g fill="#ffffff" fill-opacity="1"><g transform="translate(205.259347, 43.634236)"><g><path d="M 4.375 -19.515625 C 3.375 -19.453125 2.125 -19.484375 1.578125 -19.015625 C 1.453125 -18.90625 1.046875 -18.5 1.046875 -17.53125 C 1.046875 -17.125 1.109375 -16.71875 1.109375 -16.3125 C 1.109375 -15.953125 1.109375 -15.609375 1.109375 -15.265625 C 1.109375 -14.9375 1.1875 -13.890625 1.1875 -13.75 C 1.21875 -13.421875 1.21875 -13.3125 1.25 -13.171875 C 1.25 -12.875 1.25 -12.734375 1.25 -12.53125 L 1.28125 -9.9375 C 1.3125 -8.1875 1.1875 -6.734375 1.171875 -6.109375 C 1.171875 -5.828125 1.140625 -5.5625 1.171875 -5.265625 C 1.1875 -4.578125 1.25 -4.578125 1.25 -3.984375 C 1.25 -3.46875 1.25 -2.421875 1.171875 -1.71875 L 1.109375 -1.21875 C 1.046875 -0.75 1.28125 -0.46875 1.453125 -0.296875 C 1.71875 -0.03125 1.859375 0.03125 2.421875 0.03125 L 2.765625 0.03125 C 3 0.03125 3.234375 -0.0625 3.546875 -0.0625 C 3.578125 -0.0625 3.640625 -0.0625 3.671875 -0.0625 C 4.625 -0.03125 4.8125 0.09375 5.359375 0.0625 L 6.84375 0 C 7.171875 0 7.453125 0.0625 7.828125 0.0625 C 7.859375 0.0625 7.921875 0.0625 7.953125 0.0625 C 8.296875 0.0625 8.453125 0 8.625 -0.140625 C 8.828125 -0.328125 8.9375 -0.5 9 -0.90625 C 9 -0.96875 9 -1.046875 9 -1.109375 C 9 -1.1875 8.96875 -1.25 8.9375 -1.34375 C 8.90625 -1.421875 8.90625 -1.515625 8.890625 -1.609375 L 8.796875 -1.921875 C 8.734375 -2.09375 8.734375 -2.125 8.734375 -2.421875 C 8.734375 -2.765625 8.796875 -3.3125 9.4375 -3.3125 C 9.984375 -3.3125 10.578125 -2.703125 11.15625 -2.265625 C 11.796875 -1.8125 13.515625 -0.640625 14.09375 -0.375 C 14.46875 -0.203125 15.0625 0 16.484375 0 L 18.546875 0 C 19.046875 0 19.375 -0.171875 19.546875 -0.375 C 19.8125 -0.671875 19.828125 -1.015625 19.828125 -1.375 C 19.828125 -2.46875 19.625 -1.578125 19.71875 -2.765625 L 19.78125 -3.46875 C 19.78125 -3.640625 19.78125 -3.8125 19.8125 -3.984375 C 19.8125 -4.078125 19.828125 -4.1875 19.828125 -4.28125 C 19.828125 -4.453125 19.828125 -4.625 19.828125 -4.8125 C 19.828125 -5.15625 19.8125 -5.59375 19.484375 -5.890625 C 19.3125 -6.03125 18.953125 -6.171875 18.609375 -6.171875 C 17.703125 -6.171875 18.4375 -6.03125 17.015625 -6.03125 C 16.78125 -6.03125 16.1875 -6.09375 15.953125 -6.265625 C 15.75 -6.4375 15.734375 -6.546875 15.734375 -6.671875 C 15.734375 -6.84375 15.84375 -6.984375 15.9375 -7.015625 L 16.625 -7.375 C 17.0625 -7.578125 17.90625 -8.015625 18.296875 -8.703125 L 18.875 -9.75 C 19.453125 -10.8125 19.578125 -12.375 19.578125 -12.78125 C 19.578125 -13.078125 19.421875 -13.984375 19.25 -14.421875 C 19.171875 -14.65625 19.015625 -14.890625 18.875 -15.109375 C 18.703125 -15.40625 18.546875 -15.734375 18.40625 -16.015625 C 18.109375 -16.546875 17.734375 -17.15625 17.09375 -17.734375 C 16.1875 -18.546875 15.40625 -18.84375 15.0625 -18.953125 C 14.5 -19.140625 13.25 -19.421875 12.140625 -19.453125 C 11.9375 -19.453125 11.734375 -19.453125 11.53125 -19.453125 C 11.1875 -19.453125 10.8125 -19.421875 10.453125 -19.453125 C 9.953125 -19.484375 9.734375 -19.578125 9.109375 -19.578125 C 8.390625 -19.578125 7.859375 -19.421875 7.1875 -19.421875 C 6.640625 -19.421875 6.09375 -19.390625 5.53125 -19.484375 C 5.296875 -19.515625 5.0625 -19.515625 4.828125 -19.515625 Z M 8.671875 -12.53125 C 8.671875 -12.703125 8.703125 -12.75 8.90625 -13.046875 C 9.03125 -13.1875 9.171875 -13.3125 9.703125 -13.3125 C 10.015625 -13.3125 10.109375 -13.21875 10.3125 -13.1875 L 11.296875 -13.109375 C 11.453125 -13.109375 11.671875 -12.9375 11.765625 -12.875 C 12.140625 -12.578125 12.34375 -12.171875 12.34375 -11.765625 C 12.34375 -10.8125 11.53125 -10.453125 11.1875 -10.3125 C 10.625 -10.109375 9.90625 -9.953125 9.53125 -9.953125 C 9.375 -9.953125 9.09375 -10.015625 8.96875 -10.109375 C 8.859375 -10.1875 8.765625 -10.390625 8.734375 -10.515625 C 8.734375 -10.59375 8.734375 -10.65625 8.734375 -10.75 C 8.734375 -10.8125 8.703125 -10.859375 8.703125 -10.921875 C 8.65625 -11.1875 8.671875 -11.421875 8.671875 -11.671875 Z M 8.671875 -12.53125 "/></g></g></g><g fill="#030112" fill-opacity="1"><g transform="translate(248.136646, 38.547449)"><g><path d="M 7.828125 -4.40625 C 7.828125 -4.945312 7.726562 -5.460938 7.53125 -5.953125 C 7.34375 -6.441406 7.050781 -6.835938 6.65625 -7.140625 C 6.257812 -7.453125 5.753906 -7.609375 5.140625 -7.609375 C 4.503906 -7.609375 3.988281 -7.445312 3.59375 -7.125 C 3.207031 -6.8125 2.925781 -6.40625 2.75 -5.90625 C 2.582031 -5.40625 2.5 -4.882812 2.5 -4.34375 C 2.5 -3.769531 2.585938 -3.234375 2.765625 -2.734375 C 2.953125 -2.242188 3.242188 -1.84375 3.640625 -1.53125 C 4.046875 -1.21875 4.570312 -1.0625 5.21875 -1.0625 C 5.875 -1.0625 6.390625 -1.222656 6.765625 -1.546875 C 7.148438 -1.867188 7.421875 -2.285156 7.578125 -2.796875 C 7.742188 -3.304688 7.828125 -3.84375 7.828125 -4.40625 Z M 1.125 3.3125 L 1.125 -8.65625 L 2.546875 -8.65625 L 2.546875 -7.484375 L 2.578125 -7.484375 C 2.816406 -7.960938 3.1875 -8.3125 3.6875 -8.53125 C 4.195312 -8.75 4.75 -8.859375 5.34375 -8.859375 C 6.238281 -8.859375 6.976562 -8.648438 7.5625 -8.234375 C 8.144531 -7.816406 8.582031 -7.257812 8.875 -6.5625 C 9.175781 -5.875 9.328125 -5.125 9.328125 -4.3125 C 9.328125 -3.488281 9.179688 -2.734375 8.890625 -2.046875 C 8.597656 -1.367188 8.160156 -0.820312 7.578125 -0.40625 C 6.992188 0 6.257812 0.203125 5.375 0.203125 C 5.082031 0.203125 4.757812 0.160156 4.40625 0.078125 C 4.050781 -0.00390625 3.707031 -0.144531 3.375 -0.34375 C 3.050781 -0.550781 2.785156 -0.820312 2.578125 -1.15625 L 2.546875 -1.15625 L 2.546875 3.3125 Z M 1.125 3.3125 "/></g></g></g><g fill="#030112" fill-opacity="1"><g transform="translate(258.068754, 38.547449)"><g><path d="M 6.4375 -3.015625 L 6.4375 -4.46875 C 6.15625 -4.269531 5.773438 -4.144531 5.296875 -4.09375 C 4.816406 -4.039062 4.335938 -3.972656 3.859375 -3.890625 C 3.390625 -3.804688 2.976562 -3.65625 2.625 -3.4375 C 2.28125 -3.21875 2.109375 -2.847656 2.109375 -2.328125 C 2.109375 -1.859375 2.273438 -1.53125 2.609375 -1.34375 C 2.953125 -1.15625 3.34375 -1.0625 3.78125 -1.0625 C 4.40625 -1.0625 4.910156 -1.164062 5.296875 -1.375 C 5.691406 -1.59375 5.976562 -1.851562 6.15625 -2.15625 C 6.34375 -2.46875 6.4375 -2.753906 6.4375 -3.015625 Z M 8.75 -1.140625 L 8.75 -0.03125 C 8.488281 0.125 8.144531 0.203125 7.71875 0.203125 C 7.351562 0.203125 7.0625 0.0976562 6.84375 -0.109375 C 6.625 -0.328125 6.515625 -0.671875 6.515625 -1.140625 C 6.117188 -0.679688 5.660156 -0.34375 5.140625 -0.125 C 4.628906 0.09375 4.070312 0.203125 3.46875 0.203125 C 2.945312 0.203125 2.46875 0.117188 2.03125 -0.046875 C 1.59375 -0.210938 1.242188 -0.472656 0.984375 -0.828125 C 0.734375 -1.191406 0.609375 -1.660156 0.609375 -2.234375 C 0.609375 -2.890625 0.75 -3.390625 1.03125 -3.734375 C 1.3125 -4.078125 1.675781 -4.332031 2.125 -4.5 C 2.570312 -4.664062 3.039062 -4.796875 3.53125 -4.890625 C 4.0625 -4.992188 4.546875 -5.070312 4.984375 -5.125 C 5.421875 -5.175781 5.773438 -5.269531 6.046875 -5.40625 C 6.316406 -5.550781 6.453125 -5.800781 6.453125 -6.15625 C 6.453125 -6.570312 6.351562 -6.882812 6.15625 -7.09375 C 5.957031 -7.300781 5.707031 -7.4375 5.40625 -7.5 C 5.113281 -7.570312 4.816406 -7.609375 4.515625 -7.609375 C 3.921875 -7.609375 3.421875 -7.492188 3.015625 -7.265625 C 2.609375 -7.035156 2.390625 -6.601562 2.359375 -5.96875 L 0.9375 -5.96875 C 0.96875 -6.675781 1.15625 -7.242188 1.5 -7.671875 C 1.84375 -8.097656 2.285156 -8.398438 2.828125 -8.578125 C 3.378906 -8.765625 3.972656 -8.859375 4.609375 -8.859375 C 4.992188 -8.859375 5.378906 -8.828125 5.765625 -8.765625 C 6.148438 -8.703125 6.5 -8.585938 6.8125 -8.421875 C 7.125 -8.265625 7.375 -8.023438 7.5625 -7.703125 C 7.757812 -7.390625 7.859375 -6.984375 7.859375 -6.484375 L 7.859375 -2.03125 C 7.859375 -1.695312 7.875 -1.453125 7.90625 -1.296875 C 7.945312 -1.140625 8.082031 -1.0625 8.3125 -1.0625 C 8.363281 -1.0625 8.425781 -1.066406 8.5 -1.078125 C 8.570312 -1.085938 8.65625 -1.109375 8.75 -1.140625 Z M 8.75 -1.140625 "/></g></g></g><g fill="#030112" fill-opacity="1"><g transform="translate(267.062923, 38.547449)"><g><path d="M 1.015625 0 L 1.015625 -8.65625 L 2.359375 -8.65625 L 2.359375 -6.828125 L 2.390625 -6.828125 C 2.742188 -7.523438 3.171875 -8.039062 3.671875 -8.375 C 4.171875 -8.71875 4.804688 -8.878906 5.578125 -8.859375 L 5.578125 -7.359375 C 4.429688 -7.359375 3.625 -7.046875 3.15625 -6.421875 C 2.6875 -5.804688 2.453125 -4.953125 2.453125 -3.859375 L 2.453125 0 Z M 1.015625 0 "/></g></g></g><path stroke-linecap="butt" transform="matrix(0, -0.747321, 0.747321, 0, 259.085227, 24.530057)" fill="none" stroke-linejoin="miter" d="M -0.0015969 0.999308 L 16.12893 0.999308 " stroke="#030112" stroke-width="2" stroke-opacity="1" stroke-miterlimit="4"/><path stroke-linecap="butt" transform="matrix(0, -0.747321, 0.747321, 0, 259.085227, 57.021384)" fill="none" stroke-linejoin="miter" d="M 0.00247977 0.999308 L 16.12778 0.999308 " stroke="#030112" stroke-width="2" stroke-opacity="1" stroke-miterlimit="4"/></svg>